<?xml version="1.0" standalone="no"?>
<!DOCTYPE svg PUBLIC "-//W3C//DTD SVG 20010904//EN"
 "http://www.w3.org/TR/2001/REC-SVG-20010904/DTD/svg10.dtd">
<svg version="1.0" xmlns="http://www.w3.org/2000/svg"
 width="962.000000pt" height="997.000000pt" viewBox="0 0 962.000000 997.000000"
 preserveAspectRatio="xMidYMid meet">
<metadata>
Created by potrace 1.16, written by Peter Selinger 2001-2019
</metadata>
<g transform="translate(0.000000,997.000000) scale(0.100000,-0.100000)"
fill="#000000" stroke="none">
<path d="M5076 8027 c-71 -72 -182 -235 -294 -430 l-79 -137 -57 74 c-95 125
-166 178 -206 156 -59 -32 -51 -245 19 -548 l29 -124 -222 -543 c-121 -299
-224 -541 -227 -539 -4 2 -42 63 -85 136 -133 224 -242 355 -379 456 -203 149
-322 129 -294 -51 24 -153 133 -369 374 -743 102 -158 185 -291 185 -296 0 -4
-210 -522 -466 -1150 -257 -629 -484 -1195 -506 -1258 -111 -328 -170 -594
-172 -780 -1 -143 15 -202 65 -245 43 -36 90 -33 176 10 196 98 467 443 617
785 47 105 385 1009 577 1540 78 217 145 399 149 403 6 7 342 -501 357 -539 2
-7 -27 -86 -65 -176 -99 -231 -152 -393 -159 -483 -8 -99 3 -114 59 -82 54 30
166 150 281 301 l94 124 96 -117 c52 -64 138 -158 190 -208 125 -121 167 -133
167 -48 0 83 -84 302 -216 567 l-54 108 127 220 c70 121 130 220 134 220 3 0
52 -123 108 -272 57 -150 180 -469 273 -708 94 -239 179 -460 191 -490 l20
-56 -120 -244 c-187 -378 -255 -571 -227 -644 24 -62 175 60 380 310 49 59
100 121 114 136 l25 29 55 -97 c232 -411 588 -709 727 -608 15 11 39 42 53 70
22 44 25 61 24 159 -2 237 -101 600 -274 1000 -50 116 -92 217 -92 225 -1 8
218 355 487 770 336 519 512 800 562 897 141 278 175 467 93 511 -103 54 -370
-124 -555 -372 -52 -70 -402 -649 -665 -1099 l-133 -229 -72 169 c-40 92 -181
418 -312 724 l-240 557 254 438 c140 242 275 480 300 529 95 186 173 415 173
505 0 57 -19 99 -52 116 -26 14 -35 14 -82 0 -131 -38 -327 -217 -452 -412
-22 -33 -111 -194 -198 -357 -88 -164 -163 -294 -167 -290 -4 5 -94 208 -199
453 -105 245 -210 480 -233 523 l-42 78 23 82 c65 235 143 556 161 666 25 146
28 306 7 356 -23 55 -55 48 -130 -28z m-276 -2012 c33 -101 223 -643 278 -790
l29 -81 -142 -283 -141 -284 -26 44 c-13 24 -97 172 -186 329 l-161 285 88
255 c49 140 117 342 152 447 35 106 66 189 70 185 4 -4 21 -52 39 -107z"/>
</g>
</svg>
