<?xml version="1.0" standalone="no"?>
<!DOCTYPE svg PUBLIC "-//W3C//DTD SVG 20010904//EN"
 "http://www.w3.org/TR/2001/REC-SVG-20010904/DTD/svg10.dtd">
<svg version="1.0" xmlns="http://www.w3.org/2000/svg"
 width="2558.000000pt" height="2827.000000pt" viewBox="0 0 2558.000000 2827.000000"
 preserveAspectRatio="xMidYMid meet">

<g transform="translate(0.000000,2827.000000) scale(0.100000,-0.100000)"
fill="#000000" stroke="none">
<path d="M9951 22314 c-161 -81 -413 -430 -650 -902 -28 -56 -53 -102 -55
-102 -2 0 -41 57 -87 128 -219 337 -431 576 -573 647 -33 17 -67 25 -99 25
-44 0 -54 -4 -87 -38 -144 -144 -128 -706 49 -1662 46 -245 95 -485 145 -710
l35 -154 -35 -146 c-228 -948 -728 -3101 -968 -4165 -921 -4085 -1439 -6749
-1536 -7910 -15 -169 -8 -474 11 -528 20 -60 82 -122 156 -159 60 -29 75 -32
157 -32 68 -1 107 5 157 22 63 21 67 22 105 6 63 -26 159 -14 274 34 728 306
2062 963 3040 1497 113 62 232 127 265 145 33 18 85 47 115 65 30 18 98 56
150 85 139 78 145 81 286 163 71 41 282 166 469 279 326 195 429 248 492 251
28 2 33 -6 157 -248 523 -1019 1014 -1707 1317 -1845 84 -38 187 -20 229 40
11 16 34 31 50 35 66 14 109 100 131 255 27 201 10 784 -37 1190 -35 311 -131
912 -196 1222 -49 238 -54 286 -39 374 16 90 45 162 94 236 23 34 156 176 302
322 235 235 369 384 447 501 71 105 91 209 51 263 l-21 29 29 60 c131 273 40
428 -276 472 -240 34 -673 -29 -1094 -159 -73 -22 -134 -40 -136 -38 -1 2
-597 1685 -1324 3741 l-1321 3738 0 94 c0 83 13 203 64 582 67 495 99 888 100
1223 1 248 -1 291 -16 330 -11 27 -18 73 -18 115 -1 176 -33 422 -68 510 -54
138 -128 175 -241 119z m-281 -6709 c362 -1251 924 -3064 1339 -4317 119 -356
119 -357 97 -371 -27 -18 -3240 -1994 -3284 -2020 l-34 -20 7 59 c4 32 49 226
101 429 174 683 611 2436 708 2835 179 741 353 1484 481 2050 13 58 38 166 55
240 16 74 51 227 76 340 181 819 184 832 243 956 40 83 99 161 111 147 4 -4
49 -152 100 -328z"/>
<path d="M13145 18563 c-102 -7 -385 -45 -555 -74 -512 -88 -916 -200 -1165
-324 -252 -125 -314 -226 -214 -348 179 -217 1008 -486 1944 -632 474 -73 376
-67 1885 -115 2587 -81 2896 -89 3096 -79 411 21 665 121 640 253 -5 28 -1 35
45 75 113 97 116 205 8 307 -97 92 -244 166 -510 255 -844 282 -2815 560
-4784 674 -253 15 -284 15 -390 8z"/>
<path d="M16200 14050 c-263 -9 -287 -15 -376 -106 -50 -50 -67 -77 -92 -140
-43 -114 -56 -198 -49 -323 18 -347 210 -614 475 -661 35 -6 112 -10 170 -8
75 2 128 -3 177 -15 121 -29 253 -24 780 33 660 71 849 103 1180 201 298 87
406 158 392 259 -4 34 -1 41 45 84 53 50 88 113 88 161 0 181 -344 357 -867
444 -219 36 -351 46 -873 66 -395 15 -673 16 -1050 5z"/>
<path d="M18770 10089 c-860 -22 -1392 -50 -1576 -84 -558 -103 -1182 -334
-1534 -567 -125 -83 -268 -224 -305 -302 -40 -82 -40 -161 0 -242 36 -74 163
-202 264 -268 277 -180 675 -318 1089 -376 75 -11 182 -26 237 -35 224 -34
367 -31 975 15 140 11 437 33 660 50 223 17 520 39 660 50 140 11 379 29 530
40 151 11 390 29 530 40 140 11 379 29 530 40 151 11 424 32 605 45 182 14
422 32 535 41 830 61 1045 90 1334 176 195 58 482 183 590 258 96 65 142 149
118 213 -10 26 -7 34 33 89 71 96 81 161 39 247 -142 284 -1020 462 -2689 546
-677 34 -1837 44 -2625 24z"/>
</g>
</svg>
